<?xml version="1.0" standalone="no"?>
<!DOCTYPE svg PUBLIC "-//W3C//DTD SVG 1.1//EN" "http://www.w3.org/Graphics/SVG/1.1/DTD/svg11.dtd" >
<svg xmlns="http://www.w3.org/2000/svg">
<metadata>
This is a custom SVG webfont generated by Font Squirrel.
Copyright   : Copyright 1990 as an unpublished work by Bitstream Inc  All rights reserved  Confidential
</metadata>
<defs>
<font id="EngraversGothicRegular" horiz-adv-x="1024" >
<font-face units-per-em="2048" ascent="1638" descent="-410" />
<missing-glyph horiz-adv-x="681" />
<glyph unicode=" "  horiz-adv-x="681" />
<glyph unicode="&#x09;" horiz-adv-x="681" />
<glyph unicode="&#xa0;" horiz-adv-x="681" />
<glyph unicode="!" horiz-adv-x="681" d="M258 61q0 41 24.5 67t59.5 26t58.5 -26t23.5 -67t-23.5 -65.5t-58.5 -24.5t-59.5 24.5t-24.5 65.5zM266 1104h152l-17 -817h-118z" />
<glyph unicode="&#x22;" horiz-adv-x="569" d="M98 881v553h101v-553h-101zM371 881v553h102v-553h-102z" />
<glyph unicode="#" horiz-adv-x="1574" d="M117 479l39 107h325l101 278h-353l35 107h354l173 483h127l-168 -483h264l172 483h127l-170 -483h315l-37 -107h-317l-98 -278h340l-37 -107h-340l-170 -479h-129l172 479h-269l-172 -479h-127l170 479h-327zM612 586h267l96 278h-266z" />
<glyph unicode="$" horiz-adv-x="1366" d="M178 158l76 110q176 -137 371 -166v410q-197 10 -299.5 80t-102.5 190q0 123 109.5 207t292.5 86v164h116v-174q219 -37 392 -164l-70 -104q-154 119 -322 147v-315q213 -4 331 -91t118 -229q0 -139 -124 -238.5t-325 -99.5v-233h-116v239q-248 27 -447 181zM360 788 q0 -133 265 -153v317q-123 -6 -194 -52t-71 -112zM741 92q145 8 228.5 69.5t83.5 151.5q0 86 -82 139.5t-230 53.5v-414z" />
<glyph unicode="%" horiz-adv-x="1726" d="M51 755.5q0 137.5 90 228.5t226 91q137 0 225 -90t88 -229q0 -137 -89 -227.5t-224.5 -90.5t-225.5 90t-90 227.5zM182 758q0 -86 53.5 -143.5t131.5 -57.5q80 0 133 58.5t53 142.5q0 86 -53.5 142t-133 56t-132 -56t-52.5 -142zM510 0l561 1051h143l-561 -1051h-143z M1044 289q0 137 89.5 227t224.5 90q137 0 226 -90t89 -227t-90 -227.5t-225 -90.5t-224.5 90.5t-89.5 227.5zM1174 289q0 -86 53 -142.5t131 -56.5q80 0 133 57.5t53 141.5q0 86 -53 143t-133 57q-78 0 -131 -57t-53 -143z" />
<glyph unicode="&#x26;" horiz-adv-x="1265" d="M137 328q0 254 332 417l-303 359h725l76 -121h-518l540 -637q72 72 111 123l88 -113q-45 -63 -109 -120l197 -228h-176l-123 139q-211 -178 -428 -178q-186 0 -299 97.5t-113 261.5zM283 334q0 -104 72.5 -170t191.5 -66q180 0 348 150l-340 399q-272 -116 -272 -313z " />
<glyph unicode="'" horiz-adv-x="294" d="M98 881v553h101v-553h-101z" />
<glyph unicode="(" horiz-adv-x="559" d="M117 551q0 330 272 577l66 -77q-205 -176 -205 -500q0 -326 205 -502l-66 -78q-272 248 -272 580z" />
<glyph unicode=")" horiz-adv-x="559" d="M104 49q205 176 205 502q0 324 -205 500l66 77q272 -248 272 -577q0 -332 -272 -580z" />
<glyph unicode="*" d="M207 844l37 102l221 -82v240h96l-4 -240l223 78l35 -100l-235 -64l161 -194l-90 -66l-141 211l-141 -207l-88 62l159 198z" />
<glyph unicode="+" horiz-adv-x="1705" d="M254 561v98h551v562h98v-562h549v-98h-549v-561h-98v561h-551z" />
<glyph unicode="," horiz-adv-x="681" d="M248 -174q59 88 88 174h-8q-31 0 -51.5 25.5t-20.5 64.5q0 43 24.5 70.5t61.5 27.5q41 0 67.5 -35.5t26.5 -99.5q0 -111 -151 -262z" />
<glyph unicode="-" horiz-adv-x="526" d="M47 489v121h432v-121h-432z" />
<glyph unicode="." horiz-adv-x="681" d="M258 61q0 41 24.5 67t59.5 26t58.5 -26t23.5 -67t-23.5 -65.5t-58.5 -24.5t-59.5 24.5t-24.5 65.5z" />
<glyph unicode="/" horiz-adv-x="569" d="M-39 -190l526 1318h121l-526 -1318h-121z" />
<glyph unicode="0" horiz-adv-x="1366" d="M76 522q0 238 170 395.5t436 157.5t437 -158.5t171 -394t-170 -393.5t-438 -158q-266 0 -436 157.5t-170 393.5zM217 522q0 -180 131 -302t334 -122q205 0 335 122t130 302t-130 302t-335 122t-335 -122t-130 -302z" />
<glyph unicode="1" horiz-adv-x="1366" d="M612 -6v1061h140v-1061h-140z" />
<glyph unicode="2" horiz-adv-x="1366" d="M236 131q0 162 65.5 253t243.5 155q53 18 121.5 41.5t106.5 36t84 30t69.5 29.5t46 29.5t32 36t9.5 40.5q0 68 -72 116t-188 48q-193 0 -426 -164l-82 107q242 186 495 186q188 0 302 -85t114 -210q0 -49 -19.5 -89t-46 -66.5t-84 -54t-102.5 -44t-131 -45.5 q-33 -10 -49 -16q-109 -37 -159 -56.5t-102 -53t-70.5 -74.5t-18.5 -101q0 -16 4 -53h799v-127h-938q0 31 -1 61.5t-2 47t-1 22.5z" />
<glyph unicode="3" horiz-adv-x="1366" d="M117 215l86 104q127 -117 244.5 -169t263.5 -52q178 0 288.5 69t110.5 161q0 186 -350 186h-47v127q25 -2 69 -2q248 0 248 141q0 72 -71.5 119t-196.5 47q-217 0 -428 -153l-82 112q229 170 516 170q186 0 294.5 -81t108.5 -214q0 -121 -96 -194q178 -78 178 -254 q0 -145 -148.5 -253t-385.5 -108q-356 0 -602 244z" />
<glyph unicode="4" horiz-adv-x="1366" d="M115 254v129l839 668h138v-668h176v-129h-176v-254h-138v254h-839zM326 383h628v500z" />
<glyph unicode="5" horiz-adv-x="1366" d="M166 166l70 117q260 -182 471 -183q152 0 249 80t97 197q0 100 -97.5 168.5t-263.5 68.5q-180 0 -360 -106h-86v543h850v-129h-713v-234q172 55 309 55q229 0 366.5 -108.5t137.5 -274.5q0 -160 -138 -274.5t-358 -114.5q-274 0 -534 195z" />
<glyph unicode="6" horiz-adv-x="1366" d="M119 530q0 240 168 392.5t438 152.5q266 0 479 -180l-80 -96q-184 147 -393 147q-188 0 -310 -89t-147 -243q238 125 474 125q229 0 375.5 -108.5t146.5 -274.5q0 -168 -137.5 -276.5t-366.5 -108.5q-287 0 -467 161.5t-180 397.5zM272 463q18 -150 159.5 -256.5 t334.5 -106.5q156 0 258 76t102 178q0 109 -107.5 182.5t-266.5 73.5q-234 0 -480 -147z" />
<glyph unicode="7" horiz-adv-x="1366" d="M213 922v129h1067l-741 -1051h-162l645 922h-809z" />
<glyph unicode="8" horiz-adv-x="1366" d="M156 326q0 186 190 272q-117 76 -117 193q0 127 120 204.5t333 77.5t333 -77.5t120 -204.5q0 -117 -117 -193q188 -88 188 -270q0 -160 -139 -258.5t-385 -98.5t-386 97.5t-140 257.5zM299 326q0 -100 101.5 -163t281.5 -63t280.5 62.5t100.5 163.5q0 111 -92 154.5 t-289 43.5t-290 -43.5t-93 -154.5zM375 793q0 -63 78.5 -101.5t228.5 -38.5q152 0 230.5 38t78.5 106q0 63 -82 106t-227 43t-226 -42.5t-81 -110.5z" />
<glyph unicode="9" horiz-adv-x="1366" d="M94 690q0 168 137.5 276.5t368.5 108.5q287 0 467 -161.5t180 -397.5q0 -240 -168 -392.5t-438 -152.5q-268 0 -481 181l82 94q182 -145 393 -146q188 0 310 88t147 242q-233 -123 -474 -123q-229 0 -376.5 108.5t-147.5 274.5zM238 690q0 -109 108.5 -182.5t267.5 -73.5 q227 0 478 150q-18 150 -159.5 256t-334.5 106q-156 0 -258 -77t-102 -179z" />
<glyph unicode=":" horiz-adv-x="681" d="M258 61q0 41 24.5 67t59.5 26t58.5 -26t23.5 -67t-23.5 -65.5t-58.5 -24.5t-59.5 24.5t-24.5 65.5zM258 637q0 41 24.5 65.5t59.5 24.5t58.5 -24.5t23.5 -65.5t-23.5 -66.5t-58.5 -25.5t-59.5 25.5t-24.5 66.5z" />
<glyph unicode=";" horiz-adv-x="681" d="M248 -174q59 88 88 174h-8q-31 0 -51.5 25.5t-20.5 64.5q0 43 24.5 70.5t61.5 27.5q41 0 67.5 -35.5t26.5 -99.5q0 -111 -151 -262zM258 637q0 41 24.5 65.5t59.5 24.5t58.5 -24.5t23.5 -65.5t-23.5 -66.5t-58.5 -25.5t-59.5 25.5t-24.5 66.5z" />
<glyph unicode="&#x3c;" horiz-adv-x="1705" d="M264 569v82l1178 484v-109l-1022 -416l1022 -413v-109z" />
<glyph unicode="=" horiz-adv-x="1705" d="M254 375v98h1198v-98h-1198zM254 748v98h1198v-98h-1198z" />
<glyph unicode="&#x3e;" horiz-adv-x="1705" d="M264 88v109l1022 413l-1022 416v109l1178 -484v-82z" />
<glyph unicode="?" horiz-adv-x="739" d="M55 897q61 231 334 231q139 0 218 -70.5t79 -189.5q0 -92 -78 -166l-174 -170q-41 -41 -41 -120v-144h-137v178q0 43 13.5 78t27.5 52.5t43 46.5l170 170q37 37 37 88q0 53 -44 88t-116 35q-170 0 -205 -154zM244 61q0 41 24.5 67t59 26t59.5 -26t25 -67t-25 -65.5 t-59.5 -24.5t-59 24.5t-24.5 65.5z" />
<glyph unicode="@" horiz-adv-x="2048" d="M117 537q0 418 338 696q268 221 659 221q338 0 557 -168q260 -201 260 -508q0 -350 -243 -542q-141 -111 -310 -111q-193 0 -192 151q0 4 1 13.5t1 15.5q-104 -180 -295 -180q-154 0 -233.5 84t-79.5 244q0 231 136 388.5t328 157.5q188 0 254 -163l60 125h94l-139 -562 q-16 -72 -17 -92q0 -43 28 -67.5t79 -24.5q109 0 211 82q96 76 150.5 204t54.5 283q0 250 -197 415t-510 165q-350 0 -582 -199q-297 -254 -297 -653q0 -340 244 -537q213 -174 545 -174q352 0 635 193l39 -55q-295 -221 -654 -222q-383 0 -622 185q-303 232 -303 635z M702 444q0 -113 55.5 -174t151.5 -61q106 0 189.5 70.5t111.5 189.5l62 248q-18 94 -75.5 146t-139.5 52q-156 0 -255.5 -135t-99.5 -336z" />
<glyph unicode="A" horiz-adv-x="1204" d="M0 0l541 1104h114l547 -1104h-149l-150 297h-610l-146 -297h-147zM356 426h486l-244 489z" />
<glyph unicode="B" horiz-adv-x="1337" d="M166 0v1104h653q330 0 330 -275q0 -137 -100 -202q178 -102 178 -295q0 -152 -99.5 -242t-273.5 -90h-688zM303 127h578q96 0 149 56.5t53 150.5t-53 150.5t-149 56.5h-578v-414zM303 668h528q178 0 179 153q0 156 -179 156h-528v-309z" />
<glyph unicode="C" horiz-adv-x="1236" d="M78 549q0 252 161.5 415.5t409.5 163.5q154 0 280 -67.5t204 -190.5l-115 -82q-51 100 -149.5 155.5t-219.5 55.5q-184 0 -307 -127t-123 -323.5t123 -322.5t307 -126q264 0 398 252l110 -82q-76 -143 -208 -221t-300 -78q-248 0 -409.5 163t-161.5 415z" />
<glyph unicode="D" horiz-adv-x="1294" d="M166 0v1104h473q264 0 422 -155.5t158 -399.5t-155 -396.5t-425 -152.5h-473zM303 127h336q209 0 323.5 116.5t114.5 307.5q0 188 -117.5 307t-320.5 119h-336v-850z" />
<glyph unicode="E" horiz-adv-x="1118" d="M166 0v1104h868v-127h-731v-324h442v-127h-442v-399h776v-127h-913z" />
<glyph unicode="F" horiz-adv-x="1013" d="M166 0v1104h868v-127h-731v-324h442v-127h-442v-526h-137z" />
<glyph unicode="G" horiz-adv-x="1265" d="M78 549q0 252 161.5 415.5t409.5 163.5q154 0 280 -67.5t204 -190.5l-115 -82q-51 100 -149.5 155.5t-219.5 55.5q-184 0 -307 -127t-123 -323.5t123 -322.5t307 -126q231 0 363 199v162h-301v127h438v-332q-164 -285 -500 -285q-248 0 -409.5 163t-161.5 415z" />
<glyph unicode="H" horiz-adv-x="1261" d="M166 0v1104h139v-436h651v436h138v-1104h-138v541h-651v-541h-139z" />
<glyph unicode="I" horiz-adv-x="473" d="M168 -4v1114h139v-1114h-139z" />
<glyph unicode="J" horiz-adv-x="1099" d="M39 299v176h137v-172q0 -109 80 -156t254 -47q178 0 239.5 61.5t61.5 227.5v715h137v-752q0 -205 -107.5 -293t-355.5 -88q-227 0 -336.5 80t-109.5 248z" />
<glyph unicode="K" horiz-adv-x="1200" d="M166 0v1106h137v-551l633 551h180l-446 -393l514 -713h-166l-447 618l-268 -225v-393h-137z" />
<glyph unicode="L" d="M166 0v1104h137v-977h721v-127h-858z" />
<glyph unicode="M" horiz-adv-x="1464" d="M160 0v1104h127l446 -676l449 676h125v-1104h-136v862l-438 -653l-438 653v-862h-135z" />
<glyph unicode="N" horiz-adv-x="1255" d="M166 0v1104h72l716 -825v825h138v-1104h-70l-719 825v-825h-137z" />
<glyph unicode="O" horiz-adv-x="1298" d="M78 549q0 252 161.5 415.5t409.5 163.5t411 -163.5t163 -415.5t-163 -415t-411 -163t-409.5 163t-161.5 415zM219 548.5q0 -196.5 123 -322.5t307 -126q186 0 308 127t122 322q0 197 -121.5 323.5t-308.5 126.5q-184 0 -307 -127t-123 -323.5z" />
<glyph unicode="P" horiz-adv-x="1200" d="M160 0v1104h633q162 0 254 -80t92 -219q0 -141 -88 -231.5t-240 -90.5h-514v-483h-137zM297 612h487q211 0 211 181q0 86 -53 135t-151 49h-494v-365z" />
<glyph unicode="Q" horiz-adv-x="1298" d="M78 549q0 252 161.5 415.5t409.5 163.5t411 -163.5t163 -415.5q0 -188 -94.5 -330.5t-266.5 -212.5l74 -151h-154l-59 120q-33 -4 -86 -4q-236 0 -397.5 164t-161.5 414zM219 549q0 -195 120 -321t306 -126h19l-68 142h154l55 -117q129 51 201.5 162.5t72.5 259.5 q0 195 -121.5 322.5t-308.5 127.5q-184 0 -307 -126.5t-123 -323.5z" />
<glyph unicode="R" horiz-adv-x="1222" d="M160 0v1104h633q162 0 254 -81t92 -226q0 -119 -71 -205t-191 -107l276 -485h-152l-276 483h-428v-483h-137zM297 612h487q211 0 211 181q0 86 -53 135t-151 49h-494v-365z" />
<glyph unicode="S" horiz-adv-x="1222" d="M61 166l80 119q240 -186 494 -187q156 0 250 65.5t94 166.5q0 78 -66.5 132t-191.5 64q-20 2 -103 7.5t-109 8.5t-82 10t-92 17.5t-69 26.5q-158 76 -157 227q0 131 117.5 218t310.5 87q283 0 528 -180l-80 -114q-207 166 -446 165q-127 0 -207 -49t-80 -121 q0 -57 53 -98q43 -33 101.5 -45t179.5 -19.5t174 -13.5q170 -20 267 -109t97 -218q0 -150 -131 -252.5t-356 -102.5q-324 0 -576 195z" />
<glyph unicode="T" horiz-adv-x="854" d="M-106 977v127h1067v-127h-465v-977h-138v977h-464z" />
<glyph unicode="U" horiz-adv-x="1185" d="M137 352v752h137v-715q0 -172 64.5 -230.5t253 -58.5t253 58.5t64.5 230.5v715h138v-752q0 -203 -105.5 -292t-349.5 -89t-349.5 89t-105.5 292z" />
<glyph unicode="V" horiz-adv-x="1124" d="M-14 1104h149l426 -885l426 885h152l-535 -1104h-86z" />
<glyph unicode="W" horiz-adv-x="1474" d="M-12 1104h135l274 -852l281 852h123l280 -850l275 850h131l-359 -1104h-100l-291 889l-288 -889h-101z" />
<glyph unicode="X" horiz-adv-x="1124" d="M29 0l450 555l-444 549h168l362 -442l361 442h166l-445 -543l457 -561h-176l-367 455l-371 -455h-161z" />
<glyph unicode="Y" horiz-adv-x="929" d="M-102 1104h172l395 -436l393 436h174l-500 -553v-551h-137v553z" />
<glyph unicode="Z" horiz-adv-x="1042" d="M-4 0l745 977h-682v127h932l-729 -977h725v-127h-991z" />
<glyph unicode="[" horiz-adv-x="559" d="M115 0v1104h319v-119h-192v-866h192v-119h-319z" />
<glyph unicode="\" horiz-adv-x="569" d="M-39 1128h121l526 -1318h-121z" />
<glyph unicode="]" horiz-adv-x="559" d="M125 0v119h192v866h-192v119h321v-1104h-321z" />
<glyph unicode="^" horiz-adv-x="2048" d="M422 901l532 557h140l530 -557h-143l-457 455l-459 -455h-143z" />
<glyph unicode="_" d="M0 -383h1024v-100h-1024v100z" />
<glyph unicode="`" d="M276 1337h152l209 -350h-92z" />
<glyph unicode="a" horiz-adv-x="919" d="M-18 0l434 854h84l438 -854h-143l-111 217h-451l-110 -217h-141zM291 330h334l-166 327z" />
<glyph unicode="b" horiz-adv-x="1114" d="M147 0v852h525q264 0 264 -211q0 -106 -82 -158q143 -82 143 -227q0 -117 -78.5 -186.5t-220.5 -69.5h-551zM281 123h432q70 0 108.5 38t38.5 103.5t-38 102t-109 36.5h-432v-280zM281 528h389q129 0 129 100.5t-131 100.5h-387v-201z" />
<glyph unicode="c" horiz-adv-x="1128" d="M72 423.5q0 194.5 145 324t371 129.5q293 0 438 -201l-106 -74q-111 152 -332 152q-166 0 -272.5 -93.5t-106.5 -234.5t107.5 -234.5t271.5 -93.5q225 0 354 185l107 -74q-150 -236 -461 -236q-225 0 -370.5 128t-145.5 322.5z" />
<glyph unicode="d" horiz-adv-x="1056" d="M147 0v854h379q213 0 339 -121t126 -309t-124 -306t-341 -118h-379zM281 123h247q156 0 241 83t85 220q0 133 -89 219t-237 86h-247v-608z" />
<glyph unicode="e" horiz-adv-x="1028" d="M145 0v854h801v-125h-667v-213h438v-123h-438v-270h704v-123h-838z" />
<glyph unicode="f" horiz-adv-x="962" d="M145 0v854h789v-125h-655v-213h423v-123h-423v-393h-134z" />
<glyph unicode="g" horiz-adv-x="1175" d="M72 423.5q0 194.5 149.5 324t386.5 129.5q299 0 453 -201l-103 -74q-115 152 -350 152q-178 0 -288.5 -94.5t-110.5 -233.5t110.5 -233.5t288.5 -94.5q113 0 205 41t129 101v92h-217v123h352v-258q-152 -223 -469 -224q-240 0 -388 128t-148 322.5z" />
<glyph unicode="h" horiz-adv-x="1157" d="M145 0v854h134v-332h600v332h133v-854h-133v397h-600v-397h-134z" />
<glyph unicode="i" horiz-adv-x="432" d="M147 -2v858h136v-858h-136z" />
<glyph unicode="j" horiz-adv-x="915" d="M49 256v109h133v-91q0 -92 59.5 -135t184.5 -43q131 0 176 53.5t45 196.5v506h133v-549q0 -178 -86 -254t-284 -76q-361 0 -361 283z" />
<glyph unicode="k" horiz-adv-x="972" d="M147 0v852h134v-379l452 379h176l-358 -303l412 -549h-150l-356 471l-176 -149v-322h-134z" />
<glyph unicode="l" horiz-adv-x="919" d="M145 0v854h134v-731h634v-123h-768z" />
<glyph unicode="m" horiz-adv-x="1214" d="M145 0v854h111l350 -500l350 500h111v-854h-133v614l-328 -475l-327 475v-614h-134z" />
<glyph unicode="n" horiz-adv-x="1038" d="M147 0v854h70l543 -600v600h131v-854h-70l-542 598v-598h-132z" />
<glyph unicode="o" horiz-adv-x="1189" d="M72 425.5q0 192.5 145 322t377 129.5q233 0 378.5 -128t145.5 -323t-145.5 -324t-378.5 -129q-231 0 -376.5 130t-145.5 322.5zM209 426q0 -141 106.5 -234.5t278.5 -93.5q174 0 280.5 94.5t106.5 233.5t-106.5 233.5t-280.5 94.5q-172 0 -278.5 -93.5t-106.5 -234.5z " />
<glyph unicode="p" horiz-adv-x="1089" d="M147 0v854h621q131 0 205 -62.5t74 -175.5q0 -104 -72 -173.5t-193 -69.5h-501v-373h-134zM281 498h487q141 0 141 116q0 115 -135 115h-493v-231z" />
<glyph unicode="q" horiz-adv-x="1189" d="M72 425.5q0 192.5 145 322t377 129.5q233 0 378.5 -128t145.5 -323q0 -137 -73.5 -240.5t-196.5 -160.5l117 -142h-164l-84 101q-102 -10 -123 -11q-231 0 -376.5 130t-145.5 322.5zM209 426q0 -137 104.5 -232.5t270.5 -95.5q6 0 18 1t19 1l-86 105h161l68 -82 q104 43 160.5 124t56.5 179q0 139 -106.5 233.5t-280.5 94.5q-172 0 -278.5 -93.5t-106.5 -234.5z" />
<glyph unicode="r" horiz-adv-x="1110" d="M147 0v852h588q131 0 205 -62.5t74 -175.5q0 -90 -57.5 -157.5t-153.5 -81.5l237 -375h-145l-242 373h-372v-373h-134zM281 498h454q141 0 142 116q0 115 -142 115h-454v-231z" />
<glyph unicode="s" horiz-adv-x="1013" d="M72 109l65 112q186 -125 391 -125q117 0 185.5 47t68.5 119q0 141 -266 148q-213 4 -310 49t-97 174q0 109 94 176.5t258 67.5q219 0 413 -123l-67 -111q-168 113 -348 113q-98 0 -156.5 -35t-58.5 -88q0 -59 63.5 -82t202.5 -23q412 0 412 -274q0 -119 -103.5 -200 t-275.5 -81q-258 1 -471 136z" />
<glyph unicode="t" horiz-adv-x="829" d="M-12 735v119h854v-119h-361v-735h-133v735h-360z" />
<glyph unicode="u" horiz-adv-x="1138" d="M147 270v582h134v-547q0 -125 59 -167t229 -42t229.5 42t59.5 167v547h133v-582q0 -158 -100 -227.5t-324 -69.5q-225 0 -322.5 69.5t-97.5 227.5z" />
<glyph unicode="v" horiz-adv-x="966" d="M20 854h142l321 -639l316 639h147l-428 -854h-69z" />
<glyph unicode="w" horiz-adv-x="1255" d="M18 854h132l208 -625l215 625h111l215 -625l209 625h131l-287 -854h-96l-227 657l-228 -657h-94z" />
<glyph unicode="x" horiz-adv-x="923" d="M20 0l359 428l-354 426h161l275 -328l274 328h164l-356 -422l360 -432h-162l-280 334l-283 -334h-158z" />
<glyph unicode="y" horiz-adv-x="915" d="M2 854h172l283 -303l278 303h178l-391 -416v-438h-131v436z" />
<glyph unicode="z" horiz-adv-x="894" d="M35 0l553 729h-504v125h750l-558 -731h553v-123h-794z" />
<glyph unicode="{" d="M174 477v109q8 0 23.5 -1t21.5 -1q139 0 195.5 63.5t56.5 216.5v242q0 215 66.5 293t269.5 78h47v-107h-37q-137 0 -180 -53t-43 -201v-242q0 -158 -40 -234.5t-157 -109.5q117 -33 157 -109.5t40 -234.5v-241q0 -147 41 -200.5t174 -53.5q6 0 21.5 1t23.5 1v-107h-47 q-205 0 -270.5 77t-65.5 292v244q0 154 -56.5 217t-195.5 63q-6 0 -21.5 -1t-23.5 -1z" />
<glyph unicode="|" d="M459 -483v2048h108v-2048h-108z" />
<glyph unicode="}" d="M172 -307h39q135 0 178 52t43 200v241q0 158 39 235t158 109q-119 33 -158 110t-39 234v242q0 150 -41 203t-174 53q-6 0 -21.5 -1t-23.5 -1v107h47q203 0 269.5 -78t66.5 -293v-242q0 -154 56.5 -217t195.5 -63q6 0 21.5 1t23.5 1v-109q-8 0 -23.5 1t-21.5 1 q-139 0 -195.5 -63.5t-56.5 -216.5v-244q0 -215 -65.5 -292t-270.5 -77h-47v107z" />
<glyph unicode="~" horiz-adv-x="1705" d="M178 471v113q211 145 387 145q102 0 289 -67q8 -2 41 -14.5t43 -15.5t38 -12.5t43 -12.5t38.5 -8t44 -7t41.5 -2q164 0 387 160v-113q-201 -143 -387 -143q-23 0 -45.5 2t-46 6t-40 8t-43 12t-36.5 11.5t-41 14.5t-37 13q-193 70 -289 70q-160 0 -387 -160z" />
<glyph unicode="&#xa1;" horiz-adv-x="681" d="M258 1038q0 41 24.5 65.5t59.5 24.5t58.5 -24.5t23.5 -65.5t-23.5 -66.5t-58.5 -25.5t-59.5 25.5t-24.5 66.5zM266 -4l17 817h118l17 -817h-152z" />
<glyph unicode="&#xa2;" horiz-adv-x="1366" d="M264 522q0 178 109.5 302t290.5 147v268h118v-270q211 -20 328 -195l-109 -76q-74 119 -219 146v-645q156 37 238 180l110 -74q-111 -203 -348 -231v-336h-118v334q-180 25 -290 148.5t-110 301.5zM401 522q0 -125 70 -211t193 -110v645q-117 -20 -190 -109.5t-73 -214.5 z" />
<glyph unicode="&#xa3;" horiz-adv-x="1366" d="M182 459v129h146l-11 86q-4 41 -4 57q0 160 108.5 252t297.5 92q252 0 495 -186l-81 -107q-233 164 -410 164q-125 0 -199.5 -63.5t-74.5 -167.5q0 -16 4 -70l6 -57h342v-129h-330l29 -332h719v-127h-981l8 127h121l-29 332h-156z" />
<glyph unicode="&#xa4;" horiz-adv-x="1241" d="M90 420l205 207q-90 123 -90 258q0 137 90 260l-205 205l66 65l204 -205q119 90 261 90q147 0 262 -90l204 205l66 -65l-205 -205q88 -119 88 -260q0 -139 -88 -258l205 -207l-66 -66l-204 205q-119 -90 -262 -90q-139 0 -261 90l-204 -205zM297 887q0 -133 96 -229.5 t229.5 -96.5t227.5 96.5t94 229.5t-93 227t-228 94q-133 0 -229.5 -95t-96.5 -226z" />
<glyph unicode="&#xa5;" horiz-adv-x="1290" d="M94 1073h168l383 -424l381 424h170l-285 -313h263v-92h-343l-108 -115h451v-92h-463v-461h-133v461h-461v92h446l-102 115h-344v92h260z" />
<glyph unicode="&#xa6;" d="M459 -350v758h108v-758h-108zM459 674v758h108v-758h-108z" />
<glyph unicode="&#xa7;" d="M180 514q0 131 137 221q-70 57 -69 154q0 104 71.5 171.5t184.5 67.5q123 0 194.5 -65.5t71.5 -177.5v-8h-131q-2 61 -39 98t-96 37q-57 0 -89 -29t-32 -76q0 -72 115 -133l190 -102q154 -82 154 -223q0 -72 -39 -133.5t-103 -86.5q80 -68 80 -166q0 -102 -77.5 -173.5 t-200.5 -71.5q-119 0 -192.5 69.5t-73.5 184.5v4h131v-4q0 -63 38.5 -98t110.5 -35q59 0 95 28.5t36 79.5q0 49 -40 87t-132 87l-139 76q-156 86 -156 217zM317 557q0 -49 31 -80t107 -76l170 -98q76 45 75 125q0 49 -30.5 79t-104.5 71l-166 94q-82 -47 -82 -115z" />
<glyph unicode="&#xa8;" d="M262 1147q0 37 26.5 63.5t63.5 26.5t62.5 -26.5t25.5 -63.5q0 -39 -25.5 -64.5t-62.5 -25.5t-63.5 25.5t-26.5 64.5zM584 1147q0 37 25.5 63.5t62.5 26.5t63.5 -26.5t26.5 -63.5q0 -39 -26.5 -64.5t-63.5 -25.5t-62.5 25.5t-25.5 64.5z" />
<glyph unicode="&#xa9;" horiz-adv-x="1705" d="M121 723q0 299 219 522q207 211 512 211q307 0 522 -215q211 -211 211 -518t-211 -514q-223 -219 -522 -219t-516 217q-215 215 -215 516zM201 723q0 -266 192.5 -458.5t458.5 -192.5q268 0 467 194q186 182 186 457q0 272 -188 461q-193 193 -465 192.5t-457 -188.5 q-194 -199 -194 -465zM469 727q0 205 108.5 327t282.5 122q135 0 226.5 -72t103.5 -189h-117q-18 80 -75.5 124t-141.5 44q-121 0 -189.5 -94t-68.5 -268q0 -168 69.5 -261t188.5 -93q90 0 151.5 50t77.5 138h115q-10 -125 -108.5 -205t-241.5 -80q-176 0 -278.5 121 t-102.5 336z" />
<glyph unicode="&#xaa;" horiz-adv-x="606" d="M-12 418l286 512h56l288 -512h-94l-73 131h-297l-72 -131h-94zM193 616h219l-109 197z" />
<glyph unicode="&#xab;" horiz-adv-x="829" d="M47 326v198l324 244v-145l-254 -197l254 -201v-141zM457 326v198l323 244v-145l-254 -197l254 -201v-141z" />
<glyph unicode="&#xac;" horiz-adv-x="1705" d="M254 758v100h1198v-502h-96v402h-1102z" />
<glyph unicode="&#xad;" horiz-adv-x="526" d="M47 489v121h432v-121h-432z" />
<glyph unicode="&#xae;" horiz-adv-x="1705" d="M121 723q0 299 219 522q207 211 512 211q311 0 522 -215q211 -211 211 -518t-211 -514q-223 -219 -522 -219q-303 0 -516 217q-215 215 -215 516zM201 723q0 -266 192.5 -458.5t458.5 -192.5q268 0 467 194q186 180 186 455q0 276 -186 463q-193 193 -467 192 q-266 0 -455 -188q-196 -201 -196 -465zM565 313v844h309q176 0 262.5 -56.5t86.5 -176.5q0 -88 -53.5 -148.5t-145.5 -73.5l188 -389h-145l-178 371h-197v-371h-127zM692 768h158q129 0 185.5 31.5t56.5 115.5t-57.5 120t-184.5 36h-158v-303z" />
<glyph unicode="&#xaf;" d="M256 1087v117h512v-117h-512z" />
<glyph unicode="&#xb0;" horiz-adv-x="673" d="M59 1173.5q0 116.5 82 197.5t197 81t195.5 -82t80.5 -196.5t-80.5 -196.5t-197.5 -82t-197 81t-80 197.5zM129 1173.5q0 -86.5 61.5 -146.5t147.5 -60q88 0 147.5 60t59.5 146.5t-60.5 147.5t-146.5 61t-147.5 -61t-61.5 -147.5z" />
<glyph unicode="&#xb1;" horiz-adv-x="1705" d="M254 51v99h1198v-99h-1198zM254 723v98h551v348h98v-348h549v-98h-549v-348h-98v348h-551z" />
<glyph unicode="&#xb2;" horiz-adv-x="901" d="M156 483v13q0 98 43 153.5t161 91.5q35 12 80 25.5t71 22t55.5 17.5t46 17t30.5 18.5t20.5 20.5t6.5 25q0 41 -47.5 69.5t-124.5 28.5q-129 0 -281 -98l-55 63q162 113 327 113q123 0 199 -51t76 -125q0 -49 -38 -84t-73 -49.5t-137 -44.5l-37 -13q-72 -20 -105.5 -32.5 t-67.5 -32t-46 -44t-12 -61.5q0 -20 2 -32h528v-76h-620q0 20 -1 37.5t-1 27.5z" />
<glyph unicode="&#xb3;" horiz-adv-x="901" d="M78 547l55 63q160 -133 336 -133q119 0 191.5 41t72.5 96q0 113 -231 113h-31v76q16 -2 45 -2q164 0 164 86q0 43 -47 70.5t-129 27.5q-143 0 -283 -92l-55 68q150 102 342 102q123 0 194.5 -48t71.5 -128q0 -72 -63 -117q117 -47 116 -154q0 -86 -97 -150.5t-255 -64.5 q-237 1 -397 146z" />
<glyph unicode="&#xb4;" d="M387 987l209 350h152l-269 -350h-92z" />
<glyph unicode="&#xb5;" horiz-adv-x="1110" d="M-111 -426l316 1491h139l-125 -592q-16 -76 -16 -139q0 -117 58 -180.5t167 -63.5q125 0 214 106.5t134 311.5l121 557h139l-164 -770q-23 -100 -22 -133q0 -66 68 -66q16 0 36 2l-20 -110q-39 -10 -86 -11q-137 0 -137 146v14q-88 -162 -299 -162q-188 0 -269 156 l-114 -557h-140z" />
<glyph unicode="&#xb6;" d="M84 1130q0 156 106.5 252.5t286.5 96.5h463v-70h-127v-1409h-82v1409h-188v-1409h-82v782q-174 8 -275.5 102t-101.5 246z" />
<glyph unicode="&#xb7;" horiz-adv-x="681" d="M256 535q0 37 24.5 61.5t59.5 24.5q37 0 62.5 -25t25.5 -61q0 -35 -25.5 -60.5t-62.5 -25.5q-35 0 -59.5 25.5t-24.5 60.5z" />
<glyph unicode="&#xb8;" d="M272 -342q164 -35 236 -35q131 0 131 90q0 104 -143 105q-31 0 -47 -2v184h63v-111h20q217 0 218 -172q0 -84 -57.5 -130t-168.5 -46q-102 0 -252 41v76z" />
<glyph unicode="&#xb9;" horiz-adv-x="901" d="M403 414v637h93v-637h-93z" />
<glyph unicode="&#xba;" horiz-adv-x="784" d="M47 674q0 115 95.5 192.5t249 77.5t249.5 -76.5t96 -193.5t-96 -195t-250 -78q-152 0 -248 78t-96 195zM137 674q0 -84 71 -140.5t183 -56.5q117 0 186.5 56.5t69.5 140.5t-70.5 140t-185.5 56q-113 0 -183.5 -56t-70.5 -140z" />
<glyph unicode="&#xbb;" horiz-adv-x="829" d="M49 84v141l254 201l-254 197v145l324 -244v-198zM461 84v141l252 201l-252 197v145l321 -244v-198z" />
<glyph unicode="&#xbc;" horiz-adv-x="2062" d="M385 455v594h88v-594h-88zM518 -29l887 1102h137l-885 -1102h-139zM1274 141v74l530 373h86v-373h111v-74h-111v-141h-86v141h-530zM1407 215h397v279z" />
<glyph unicode="&#xbd;" horiz-adv-x="2062" d="M385 455v594h88v-594h-88zM518 -29l887 1102h137l-885 -1102h-139zM1350 74q0 90 42 141t154 86q33 10 76 23.5t67.5 20.5t53.5 16.5t44 17.5t29.5 17.5t19.5 19.5t5 22q0 39 -45 65.5t-119 26.5q-123 0 -268 -92l-51 60q150 104 311 104q119 0 190.5 -48t71.5 -118 q0 -45 -35.5 -77.5t-74.5 -47t-135 -43.5q-18 -6 -27 -8q-129 -39 -175 -67.5t-46 -92.5q0 -8 4 -28h502v-72h-590q0 16 -1 33.5t-2 27t-1 13.5z" />
<glyph unicode="&#xbe;" horiz-adv-x="2062" d="M74 580l53 57q154 -123 322 -123q113 0 181 39t68 90q0 104 -219 105h-30v69h45q156 0 155 78q0 41 -45 67.5t-125 26.5q-135 0 -268 -86l-53 64q145 94 325 94q119 0 186.5 -45t67.5 -121q0 -66 -59 -109q113 -43 113 -141q0 -82 -93.5 -142.5t-244.5 -60.5 q-223 1 -379 138zM518 -29l887 1102h137l-885 -1102h-139zM1274 141v74l530 373h86v-373h111v-74h-111v-141h-86v141h-530zM1407 215h397v279z" />
<glyph unicode="&#xbf;" horiz-adv-x="739" d="M53 231q0 92 78 166l174 170q41 41 41 121v143h137v-178q0 -43 -13 -77.5t-27.5 -52t-43.5 -46.5l-170 -170q-37 -37 -36 -88q0 -53 44 -88t115 -35q170 0 205 154l127 -47q-61 -231 -332 -232q-139 0 -219 70.5t-80 189.5zM328 1038q0 41 24.5 65.5t59 24.5t59.5 -24.5 t25 -65.5t-25 -66.5t-59.5 -25.5t-59 25.5t-24.5 66.5z" />
<glyph unicode="&#xc0;" horiz-adv-x="1204" d="M0 0l541 1104h114l547 -1104h-149l-150 297h-610l-146 -297h-147zM356 426h486l-244 489zM367 1589h151l209 -350h-92z" />
<glyph unicode="&#xc1;" horiz-adv-x="1204" d="M0 0l541 1104h114l547 -1104h-149l-150 297h-610l-146 -297h-147zM356 426h486l-244 489zM477 1239l209 350h152l-269 -350h-92z" />
<glyph unicode="&#xc2;" horiz-adv-x="1204" d="M0 0l541 1104h114l547 -1104h-149l-150 297h-610l-146 -297h-147zM326 1239l200 350h152l201 -350h-93l-184 264l-184 -264h-92zM356 426h486l-244 489z" />
<glyph unicode="&#xc3;" horiz-adv-x="1204" d="M0 0l541 1104h114l547 -1104h-149l-150 297h-610l-146 -297h-147zM313 1298q43 182 195 183q31 0 53 -8l96 -31q35 -12 56 -12q61 0 96 73h82q-53 -182 -191 -182q-29 0 -65 10l-96 31q-29 8 -54 8q-61 0 -92 -72h-80zM356 426h486l-244 489z" />
<glyph unicode="&#xc4;" horiz-adv-x="1204" d="M0 0l541 1104h114l547 -1104h-149l-150 297h-610l-146 -297h-147zM352 1399q0 37 27 63.5t63.5 26.5t62 -26.5t25.5 -63.5q0 -39 -25.5 -64.5t-62 -25.5t-63.5 25.5t-27 64.5zM356 426h486l-244 489zM674 1399q0 37 25.5 63.5t62.5 26.5t63.5 -26.5t26.5 -63.5 q0 -39 -26.5 -64.5t-63.5 -25.5t-62.5 25.5t-25.5 64.5z" />
<glyph unicode="&#xc5;" horiz-adv-x="1204" d="M0 0l541 1104h114l547 -1104h-149l-150 297h-610l-146 -297h-147zM356 426h486l-244 489zM358 1456q0 100 71 170t171 70t170 -70t70 -170t-70 -169.5t-170 -69.5t-171 69.5t-71 169.5zM449 1456.5q0 -63.5 44 -107.5t107 -44q61 0 105.5 44t44.5 107.5t-44 106.5 t-106 43q-63 0 -107 -43t-44 -106.5z" />
<glyph unicode="&#xc6;" horiz-adv-x="1759" d="M-51 0l641 1104h1126v-127h-731v-324h445v-127h-445v-399h778v-127h-915v297h-580l-174 -297h-145zM340 426h508v551h-186z" />
<glyph unicode="&#xc7;" horiz-adv-x="1236" d="M78 549q0 252 161.5 415.5t409.5 163.5q154 0 280 -67.5t204 -190.5l-115 -82q-51 100 -149.5 155.5t-219.5 55.5q-184 0 -307 -127t-123 -323.5t123 -322.5t307 -126q264 0 398 252l110 -82q-76 -143 -208 -221t-300 -78q-248 0 -409.5 163t-161.5 415zM406 -342 q164 -35 235 -35q131 0 131 90q0 104 -143 105q-31 0 -47 -2v184h63v-111h21q217 0 217 -172q0 -84 -57.5 -130t-168.5 -46q-102 0 -251 41v76z" />
<glyph unicode="&#xc8;" horiz-adv-x="1118" d="M166 0v1104h868v-127h-731v-324h442v-127h-442v-399h776v-127h-913zM381 1589h151l209 -350h-92z" />
<glyph unicode="&#xc9;" horiz-adv-x="1118" d="M166 0v1104h868v-127h-731v-324h442v-127h-442v-399h776v-127h-913zM492 1239l208 350h152l-268 -350h-92z" />
<glyph unicode="&#xca;" horiz-adv-x="1118" d="M166 0v1104h868v-127h-731v-324h442v-127h-442v-399h776v-127h-913zM340 1239l201 350h151l201 -350h-92l-185 264l-184 -264h-92z" />
<glyph unicode="&#xcb;" horiz-adv-x="1118" d="M166 0v1104h868v-127h-731v-324h442v-127h-442v-399h776v-127h-913zM367 1399q0 37 26.5 63.5t63.5 26.5t62.5 -26.5t25.5 -63.5q0 -39 -25.5 -64.5t-62.5 -25.5t-63.5 25.5t-26.5 64.5zM688 1399q0 37 25.5 63.5t62.5 26.5t63.5 -26.5t26.5 -63.5q0 -39 -26.5 -64.5 t-63.5 -25.5t-62.5 25.5t-25.5 64.5z" />
<glyph unicode="&#xcc;" horiz-adv-x="473" d="M2 1589h152l208 -350h-92zM168 -4v1114h139v-1114h-139z" />
<glyph unicode="&#xcd;" horiz-adv-x="473" d="M113 1239l209 350h151l-268 -350h-92zM168 -4v1114h139v-1114h-139z" />
<glyph unicode="&#xce;" horiz-adv-x="473" d="M-39 1239l201 350h151l201 -350h-92l-184 264l-185 -264h-92zM168 -4v1114h139v-1114h-139z" />
<glyph unicode="&#xcf;" horiz-adv-x="473" d="M-12 1399q0 37 26.5 63.5t63.5 26.5t62.5 -26.5t25.5 -63.5q0 -39 -25.5 -64.5t-62.5 -25.5t-63.5 25.5t-26.5 64.5zM168 -4v1114h139v-1114h-139zM309 1399q0 37 25.5 63.5t62.5 26.5t63.5 -26.5t26.5 -63.5q0 -39 -26.5 -64.5t-63.5 -25.5t-62.5 25.5t-25.5 64.5z" />
<glyph unicode="&#xd0;" horiz-adv-x="1370" d="M2 547v115h238v442h473q264 0 421.5 -155.5t157.5 -399.5t-154.5 -396.5t-424.5 -152.5h-473v547h-238zM377 127h336q209 0 323.5 116.5t114.5 307.5q0 188 -118 307t-320 119h-336v-315h387v-115h-387v-420z" />
<glyph unicode="&#xd1;" horiz-adv-x="1255" d="M166 0v1104h72l716 -825v825h138v-1104h-70l-719 825v-825h-137zM340 1298q43 182 195 183q31 0 53 -8l96 -31q33 -12 55 -12q63 0 97 73h82q-53 -182 -191 -182q-29 0 -65 10l-97 31q-29 8 -53 8q-61 0 -92 -72h-80z" />
<glyph unicode="&#xd2;" horiz-adv-x="1298" d="M78 549q0 252 161.5 415.5t409.5 163.5t411 -163.5t163 -415.5t-163 -415t-411 -163t-409.5 163t-161.5 415zM219 548.5q0 -196.5 123 -322.5t307 -126q186 0 308 127t122 322q0 197 -121.5 323.5t-308.5 126.5q-184 0 -307 -127t-123 -323.5zM414 1589h151l209 -350h-92 z" />
<glyph unicode="&#xd3;" horiz-adv-x="1298" d="M78 549q0 252 161.5 415.5t409.5 163.5t411 -163.5t163 -415.5t-163 -415t-411 -163t-409.5 163t-161.5 415zM219 548.5q0 -196.5 123 -322.5t307 -126q186 0 308 127t122 322q0 197 -121.5 323.5t-308.5 126.5q-184 0 -307 -127t-123 -323.5zM524 1239l209 350h152 l-269 -350h-92z" />
<glyph unicode="&#xd4;" horiz-adv-x="1298" d="M78 549q0 252 161.5 415.5t409.5 163.5t411 -163.5t163 -415.5t-163 -415t-411 -163t-409.5 163t-161.5 415zM219 548.5q0 -196.5 123 -322.5t307 -126q186 0 308 127t122 322q0 197 -121.5 323.5t-308.5 126.5q-184 0 -307 -127t-123 -323.5zM373 1239l200 350h152 l201 -350h-92l-185 264l-184 -264h-92z" />
<glyph unicode="&#xd5;" horiz-adv-x="1298" d="M78 549q0 252 161.5 415.5t409.5 163.5t411 -163.5t163 -415.5t-163 -415t-411 -163t-409.5 163t-161.5 415zM219 548.5q0 -196.5 123 -322.5t307 -126q186 0 308 127t122 322q0 197 -121.5 323.5t-308.5 126.5q-184 0 -307 -127t-123 -323.5zM360 1298q43 182 195 183 q31 0 53 -8l97 -31q33 -12 55 -12q63 0 96 73h82q-53 -182 -190 -182q-29 0 -66 10l-96 31q-29 8 -54 8q-61 0 -92 -72h-80z" />
<glyph unicode="&#xd6;" horiz-adv-x="1298" d="M78 549q0 252 161.5 415.5t409.5 163.5t411 -163.5t163 -415.5t-163 -415t-411 -163t-409.5 163t-161.5 415zM219 548.5q0 -196.5 123 -322.5t307 -126q186 0 308 127t122 322q0 197 -121.5 323.5t-308.5 126.5q-184 0 -307 -127t-123 -323.5zM399 1399q0 37 27 63.5 t63.5 26.5t62.5 -26.5t26 -63.5q0 -39 -26 -64.5t-62.5 -25.5t-63.5 25.5t-27 64.5zM721 1399q0 37 25.5 63.5t62.5 26.5t63.5 -26.5t26.5 -63.5q0 -39 -26.5 -64.5t-63.5 -25.5t-62.5 25.5t-25.5 64.5z" />
<glyph unicode="&#xd7;" horiz-adv-x="1705" d="M305 129l481 481l-481 482l70 69l481 -481l481 481l70 -69l-481 -482l481 -481l-70 -70l-481 482l-481 -482z" />
<glyph unicode="&#xd8;" horiz-adv-x="1298" d="M78 549q0 252 161.5 415.5t409.5 163.5q150 0 285 -71l70 100h157l-123 -174q184 -162 185 -434q0 -252 -163 -415t-411 -163q-150 0 -284 72l-70 -100h-158l123 174q-182 160 -182 432zM219 549q0 -180 123 -322l516 721q-102 51 -209 51q-184 0 -307 -126.5 t-123 -323.5zM440 150q98 -49 209 -50q186 0 308 127t122 322q0 186 -121 321z" />
<glyph unicode="&#xd9;" horiz-adv-x="1185" d="M137 352v752h137v-715q0 -172 64.5 -230.5t253 -58.5t253 58.5t64.5 230.5v715h138v-752q0 -203 -105.5 -292t-349.5 -89t-349.5 89t-105.5 292zM358 1589h152l209 -350h-92z" />
<glyph unicode="&#xda;" horiz-adv-x="1185" d="M137 352v752h137v-715q0 -172 64.5 -230.5t253 -58.5t253 58.5t64.5 230.5v715h138v-752q0 -203 -105.5 -292t-349.5 -89t-349.5 89t-105.5 292zM469 1239l209 350h151l-268 -350h-92z" />
<glyph unicode="&#xdb;" horiz-adv-x="1185" d="M137 352v752h137v-715q0 -172 64.5 -230.5t253 -58.5t253 58.5t64.5 230.5v715h138v-752q0 -203 -105.5 -292t-349.5 -89t-349.5 89t-105.5 292zM317 1239l201 350h152l200 -350h-92l-184 264l-184 -264h-93z" />
<glyph unicode="&#xdc;" horiz-adv-x="1185" d="M137 352v752h137v-715q0 -172 64.5 -230.5t253 -58.5t253 58.5t64.5 230.5v715h138v-752q0 -203 -105.5 -292t-349.5 -89t-349.5 89t-105.5 292zM344 1399q0 37 26.5 63.5t63.5 26.5t62.5 -26.5t25.5 -63.5q0 -39 -25.5 -64.5t-62.5 -25.5t-63.5 25.5t-26.5 64.5z M666 1399q0 37 25.5 63.5t62.5 26.5t63.5 -26.5t26.5 -63.5q0 -39 -26.5 -64.5t-63.5 -25.5t-62.5 25.5t-25.5 64.5z" />
<glyph unicode="&#xdd;" horiz-adv-x="929" d="M-102 1104h172l395 -436l393 436h174l-500 -553v-551h-137v553zM340 1239l209 350h151l-268 -350h-92z" />
<glyph unicode="&#xde;" horiz-adv-x="1200" d="M160 0v1104h137v-215h496q162 0 254 -81t92 -226q0 -135 -88 -224.5t-240 -89.5h-514v-268h-137zM297 395h487q211 0 211 183q0 86 -53 135t-151 49h-494v-367z" />
<glyph unicode="&#xdf;" horiz-adv-x="2027" d="M72 109l65 112q186 -125 391 -125q117 0 185.5 47t68.5 119q0 141 -266 148q-213 4 -310 49t-97 174q0 109 94 176.5t258 67.5q219 0 413 -123l-67 -111q-168 113 -348 113q-98 0 -156.5 -35t-58.5 -88q0 -59 63.5 -82t202.5 -23q412 0 412 -274q0 -119 -103.5 -200 t-275.5 -81q-258 1 -471 136zM1085 109l66 112q188 -125 391 -125q117 0 185.5 47t68.5 119q0 141 -266 148q-213 4 -310.5 49t-97.5 174q0 109 94.5 176.5t258.5 67.5q221 0 413 -123l-67 -111q-170 113 -348 113q-98 0 -157 -35t-59 -88q0 -59 63.5 -82t203.5 -23 q412 0 411 -274q0 -119 -103 -200t-276 -81q-258 1 -471 136z" />
<glyph unicode="&#xe0;" horiz-adv-x="919" d="M-18 0l434 854h84l438 -854h-143l-111 217h-451l-110 -217h-141zM225 1337h152l209 -350h-92zM291 330h334l-166 327z" />
<glyph unicode="&#xe1;" horiz-adv-x="919" d="M-18 0l434 854h84l438 -854h-143l-111 217h-451l-110 -217h-141zM291 330h334l-166 327zM336 987l209 350h151l-268 -350h-92z" />
<glyph unicode="&#xe2;" horiz-adv-x="919" d="M-18 0l434 854h84l438 -854h-143l-111 217h-451l-110 -217h-141zM184 987l201 350h152l200 -350h-92l-184 264l-185 -264h-92zM291 330h334l-166 327z" />
<glyph unicode="&#xe3;" horiz-adv-x="919" d="M-18 0l434 854h84l438 -854h-143l-111 217h-451l-110 -217h-141zM172 1047q43 182 195 182q31 0 53 -8l96 -31q33 -12 55 -12q63 0 97 73h82q-53 -182 -191 -182q-29 0 -65 10l-97 31q-29 8 -53 8q-61 0 -92 -71h-80zM291 330h334l-166 327z" />
<glyph unicode="&#xe4;" horiz-adv-x="919" d="M-18 0l434 854h84l438 -854h-143l-111 217h-451l-110 -217h-141zM211 1147q0 37 26.5 63.5t63.5 26.5t62.5 -26.5t25.5 -63.5q0 -39 -25.5 -64.5t-62.5 -25.5t-63.5 25.5t-26.5 64.5zM291 330h334l-166 327zM532 1147q0 37 26 63.5t62.5 26.5t63.5 -26.5t27 -63.5 q0 -39 -27 -64.5t-63.5 -25.5t-62.5 25.5t-26 64.5z" />
<glyph unicode="&#xe5;" horiz-adv-x="919" d="M-18 0l434 854h84l438 -854h-143l-111 217h-451l-110 -217h-141zM221 1210.5q0 100.5 69.5 170t170 69.5t171 -69.5t70.5 -170t-70.5 -171t-171 -70.5t-170 70.5t-69.5 171zM291 330h334l-166 327zM311 1208.5q0 -63.5 43 -106.5t107 -43q61 0 105 43t44 106.5t-44 107.5 t-105 44q-63 0 -106.5 -44t-43.5 -107.5z" />
<glyph unicode="&#xe6;" horiz-adv-x="1658" d="M-16 0l491 854h1106v-125h-672v-213h437v-123h-437v-270h705v-123h-838v217h-524l-125 -217h-143zM322 330h454v399h-225z" />
<glyph unicode="&#xe7;" horiz-adv-x="1128" d="M72 423.5q0 194.5 145 324t371 129.5q293 0 438 -201l-106 -74q-111 152 -332 152q-166 0 -272.5 -93.5t-106.5 -234.5t107.5 -234.5t271.5 -93.5q225 0 354 185l107 -74q-150 -236 -461 -236q-225 0 -370.5 128t-145.5 322.5zM326 -342q164 -35 235 -35q131 0 131 90 q0 104 -143 105q-31 0 -47 -2v184h63v-111h21q217 0 217 -172q0 -84 -57.5 -130t-167.5 -46q-102 0 -252 41v76z" />
<glyph unicode="&#xe8;" horiz-adv-x="1028" d="M145 0v854h801v-125h-667v-213h438v-123h-438v-270h704v-123h-838zM317 1337h152l209 -350h-92z" />
<glyph unicode="&#xe9;" horiz-adv-x="1028" d="M145 0v854h801v-125h-667v-213h438v-123h-438v-270h704v-123h-838zM428 987l209 350h151l-268 -350h-92z" />
<glyph unicode="&#xea;" horiz-adv-x="1028" d="M145 0v854h801v-125h-667v-213h438v-123h-438v-270h704v-123h-838zM276 987l201 350h152l200 -350h-92l-184 264l-184 -264h-93z" />
<glyph unicode="&#xeb;" horiz-adv-x="1028" d="M145 0v854h801v-125h-667v-213h438v-123h-438v-270h704v-123h-838zM303 1147q0 37 26.5 63.5t63.5 26.5t62.5 -26.5t25.5 -63.5q0 -39 -25.5 -64.5t-62.5 -25.5t-63.5 25.5t-26.5 64.5zM625 1147q0 37 25.5 63.5t62.5 26.5t63.5 -26.5t26.5 -63.5q0 -39 -26.5 -64.5 t-63.5 -25.5t-62.5 25.5t-25.5 64.5z" />
<glyph unicode="&#xec;" horiz-adv-x="432" d="M-18 1337h151l209 -350h-92zM147 -2v858h136v-858h-136z" />
<glyph unicode="&#xed;" horiz-adv-x="432" d="M92 987l209 350h152l-269 -350h-92zM147 -2v858h136v-858h-136z" />
<glyph unicode="&#xee;" horiz-adv-x="432" d="M-59 987l200 350h152l201 -350h-93l-184 264l-184 -264h-92zM147 -2v858h136v-858h-136z" />
<glyph unicode="&#xef;" horiz-adv-x="432" d="M-33 1147q0 37 26.5 63.5t63.5 26.5t62.5 -26.5t25.5 -63.5q0 -39 -25.5 -64.5t-62.5 -25.5t-63.5 25.5t-26.5 64.5zM147 -2v858h136v-858h-136zM289 1147q0 37 25.5 63.5t62.5 26.5t63.5 -26.5t26.5 -63.5q0 -39 -26.5 -64.5t-63.5 -25.5t-62.5 25.5t-25.5 64.5z" />
<glyph unicode="&#xf1;" horiz-adv-x="1038" d="M147 0v854h70l543 -600v600h131v-854h-70l-542 598v-598h-132zM231 1047q43 182 195 182q31 0 53 -8l96 -31q35 -12 56 -12q61 0 96 73h82q-53 -182 -191 -182q-29 0 -65 10l-96 31q-29 8 -54 8q-61 0 -92 -71h-80z" />
<glyph unicode="&#xf2;" horiz-adv-x="1189" d="M72 425.5q0 192.5 145 322t377 129.5q233 0 378.5 -128t145.5 -323t-145.5 -324t-378.5 -129q-231 0 -376.5 130t-145.5 322.5zM209 426q0 -141 106.5 -234.5t278.5 -93.5q174 0 280.5 94.5t106.5 233.5t-106.5 233.5t-280.5 94.5q-172 0 -278.5 -93.5t-106.5 -234.5z M360 1337h152l209 -350h-92z" />
<glyph unicode="&#xf3;" horiz-adv-x="1189" d="M72 425.5q0 192.5 145 322t377 129.5q233 0 378.5 -128t145.5 -323t-145.5 -324t-378.5 -129q-231 0 -376.5 130t-145.5 322.5zM209 426q0 -141 106.5 -234.5t278.5 -93.5q174 0 280.5 94.5t106.5 233.5t-106.5 233.5t-280.5 94.5q-172 0 -278.5 -93.5t-106.5 -234.5z M471 987l209 350h151l-268 -350h-92z" />
<glyph unicode="&#xf4;" horiz-adv-x="1189" d="M72 425.5q0 192.5 145 322t377 129.5q233 0 378.5 -128t145.5 -323t-145.5 -324t-378.5 -129q-231 0 -376.5 130t-145.5 322.5zM209 426q0 -141 106.5 -234.5t278.5 -93.5q174 0 280.5 94.5t106.5 233.5t-106.5 233.5t-280.5 94.5q-172 0 -278.5 -93.5t-106.5 -234.5z M319 987l201 350h152l200 -350h-92l-184 264l-184 -264h-93z" />
<glyph unicode="&#xf5;" horiz-adv-x="1189" d="M72 425.5q0 192.5 145 322t377 129.5q233 0 378.5 -128t145.5 -323t-145.5 -324t-378.5 -129q-231 0 -376.5 130t-145.5 322.5zM209 426q0 -141 106.5 -234.5t278.5 -93.5q174 0 280.5 94.5t106.5 233.5t-106.5 233.5t-280.5 94.5q-172 0 -278.5 -93.5t-106.5 -234.5z M307 1047q43 182 195 182q31 0 53 -8l96 -31q33 -12 56 -12q63 0 96 73h82q-53 -182 -191 -182q-29 0 -65 10l-97 31q-29 8 -53 8q-61 0 -92 -71h-80z" />
<glyph unicode="&#xf6;" horiz-adv-x="1189" d="M72 425.5q0 192.5 145 322t377 129.5q233 0 378.5 -128t145.5 -323t-145.5 -324t-378.5 -129q-231 0 -376.5 130t-145.5 322.5zM209 426q0 -141 106.5 -234.5t278.5 -93.5q174 0 280.5 94.5t106.5 233.5t-106.5 233.5t-280.5 94.5q-172 0 -278.5 -93.5t-106.5 -234.5z M346 1147q0 37 26.5 63.5t63.5 26.5t62.5 -26.5t25.5 -63.5q0 -39 -25.5 -64.5t-62.5 -25.5t-63.5 25.5t-26.5 64.5zM668 1147q0 37 25.5 63.5t62.5 26.5t63.5 -26.5t26.5 -63.5q0 -39 -26.5 -64.5t-63.5 -25.5t-62.5 25.5t-25.5 64.5z" />
<glyph unicode="&#xf7;" horiz-adv-x="1705" d="M254 561v98h1198v-98h-1198zM748 258q0 45 31.5 76t74.5 31q45 0 76 -31t31 -76q0 -43 -31 -74.5t-76 -31.5t-75.5 30.5t-30.5 75.5zM748 963q0 45 31.5 76.5t74.5 31.5q45 0 76 -31.5t31 -76.5q0 -43 -31 -75t-76 -32t-75.5 31t-30.5 76z" />
<glyph unicode="&#xf8;" horiz-adv-x="1093" d="M63 -39l138 158q-113 131 -113 307q0 195 130 323t329 128q139 0 256 -70l69 84h158l-137 -160q113 -131 113 -305q0 -195 -130.5 -324t-328.5 -129q-139 0 -256 70l-70 -82h-158zM221 426q0 -117 66 -209l436 498q-76 47 -176 47q-139 0 -232.5 -95.5t-93.5 -240.5z M373 137q76 -45 174 -45q143 0 235 94.5t92 239.5q0 123 -67 211z" />
<glyph unicode="&#xf9;" horiz-adv-x="1138" d="M147 270v582h134v-547q0 -125 59 -167t229 -42t229.5 42t59.5 167v547h133v-582q0 -158 -100 -227.5t-324 -69.5q-225 0 -322.5 69.5t-97.5 227.5zM334 1337h151l209 -350h-92z" />
<glyph unicode="&#xfa;" horiz-adv-x="1138" d="M147 270v582h134v-547q0 -125 59 -167t229 -42t229.5 42t59.5 167v547h133v-582q0 -158 -100 -227.5t-324 -69.5q-225 0 -322.5 69.5t-97.5 227.5zM444 987l209 350h152l-268 -350h-93z" />
<glyph unicode="&#xfb;" horiz-adv-x="1138" d="M147 270v582h134v-547q0 -125 59 -167t229 -42t229.5 42t59.5 167v547h133v-582q0 -158 -100 -227.5t-324 -69.5q-225 0 -322.5 69.5t-97.5 227.5zM293 987l201 350h151l201 -350h-92l-185 264l-184 -264h-92z" />
<glyph unicode="&#xfc;" horiz-adv-x="1138" d="M147 270v582h134v-547q0 -125 59 -167t229 -42t229.5 42t59.5 167v547h133v-582q0 -158 -100 -227.5t-324 -69.5q-225 0 -322.5 69.5t-97.5 227.5zM319 1147q0 37 27 63.5t63.5 26.5t62.5 -26.5t26 -63.5q0 -39 -26 -64.5t-62.5 -25.5t-63.5 25.5t-27 64.5zM641 1147 q0 37 25.5 63.5t62.5 26.5t63.5 -26.5t26.5 -63.5q0 -39 -26.5 -64.5t-63.5 -25.5t-62.5 25.5t-25.5 64.5z" />
<glyph unicode="&#xfd;" horiz-adv-x="915" d="M2 854h172l283 -303l278 303h178l-391 -416v-438h-131v436zM334 987l209 350h151l-268 -350h-92z" />
<glyph unicode="&#xff;" horiz-adv-x="915" d="M2 854h172l283 -303l278 303h178l-391 -416v-438h-131v436zM209 1147q0 37 26.5 63.5t63.5 26.5t62.5 -26.5t25.5 -63.5q0 -39 -25.5 -64.5t-62.5 -25.5t-63.5 25.5t-26.5 64.5zM530 1147q0 37 26 63.5t62.5 26.5t63.5 -26.5t27 -63.5q0 -39 -27 -64.5t-63.5 -25.5 t-62.5 25.5t-26 64.5z" />
<glyph unicode="&#x152;" horiz-adv-x="2019" d="M78 549q0 252 161.5 415.5t409.5 163.5q262 0 420 -196v172h870v-127h-731v-324h443v-127h-443v-399h777v-127h-916v166q-156 -195 -420 -195q-248 0 -409.5 163t-161.5 415zM219 548.5q0 -196.5 123 -322.5t307 -126q186 0 308 127t122 322q0 197 -121.5 323.5 t-308.5 126.5q-184 0 -307 -127t-123 -323.5z" />
<glyph unicode="&#x153;" horiz-adv-x="1857" d="M72 426q0 197 146.5 324t389.5 127q219 0 367 -136v113h803v-125h-670v-213h438v-123h-438v-270h704v-123h-837v111q-152 -137 -381 -138q-231 0 -376.5 130t-145.5 323zM209 426q0 -141 106.5 -234.5t278.5 -93.5q174 0 280.5 94.5t106.5 233.5t-106.5 233.5 t-280.5 94.5q-172 0 -278.5 -93.5t-106.5 -234.5z" />
<glyph unicode="&#x178;" horiz-adv-x="929" d="M-102 1104h172l395 -436l393 436h174l-500 -553v-551h-137v553zM215 1399q0 37 26.5 63.5t63.5 26.5t62.5 -26.5t25.5 -63.5q0 -39 -25.5 -64.5t-62.5 -25.5t-63.5 25.5t-26.5 64.5zM537 1399q0 37 25.5 63.5t62.5 26.5t63.5 -26.5t26.5 -63.5q0 -39 -26.5 -64.5 t-63.5 -25.5t-62.5 25.5t-25.5 64.5z" />
<glyph unicode="&#x2c6;" d="M236 987l200 350h152l200 -350h-92l-184 264l-184 -264h-92z" />
<glyph unicode="&#x2dc;" d="M223 1047q43 182 195 182q31 0 53 -8l96 -31q35 -12 56 -12q61 0 96 73h82q-53 -182 -191 -182q-29 0 -65 10l-96 31q-29 8 -54 8q-61 0 -92 -71h-80z" />
<glyph unicode="&#x3bc;" horiz-adv-x="1110" d="M-111 -426l316 1491h139l-125 -592q-16 -76 -16 -139q0 -117 58 -180.5t167 -63.5q125 0 214 106.5t134 311.5l121 557h139l-164 -770q-23 -100 -22 -133q0 -66 68 -66q16 0 36 2l-20 -110q-39 -10 -86 -11q-137 0 -137 146v14q-88 -162 -299 -162q-188 0 -269 156 l-114 -557h-140z" />
<glyph unicode="&#x2013;" d="M0 508v84h1024v-84h-1024z" />
<glyph unicode="&#x2014;" horiz-adv-x="2048" d="M0 508v84h2048v-84h-2048z" />
<glyph unicode="&#x2018;" horiz-adv-x="681" d="M248 864q0 115 149 264l39 -34q-63 -90 -90 -176h8q31 0 51.5 -26t20.5 -65q0 -43 -23.5 -69.5t-60.5 -26.5q-41 0 -67.5 35t-26.5 98z" />
<glyph unicode="&#x2019;" horiz-adv-x="681" d="M248 766q59 86 88 176h-10q-31 0 -50.5 24.5t-19.5 63.5q0 43 24.5 70.5t61.5 27.5q41 0 67.5 -35.5t26.5 -99.5q0 -111 -151 -262z" />
<glyph unicode="&#x201a;" horiz-adv-x="681" d="M248 -174q59 88 88 174h-8q-31 0 -51.5 25.5t-20.5 64.5q0 43 24.5 70.5t61.5 27.5q41 0 67.5 -35.5t26.5 -99.5q0 -111 -151 -262z" />
<glyph unicode="&#x201c;" horiz-adv-x="1013" d="M248 864q0 115 149 264l39 -34q-63 -90 -90 -176h8q31 0 51.5 -26t20.5 -65q0 -43 -23.5 -69.5t-60.5 -26.5q-41 0 -67.5 35t-26.5 98zM580 864q0 115 149 264l39 -34q-63 -90 -90 -176h8q31 0 51.5 -26t20.5 -65q0 -43 -23.5 -69.5t-60.5 -26.5q-41 0 -67.5 35t-26.5 98 z" />
<glyph unicode="&#x201d;" horiz-adv-x="1013" d="M248 766q59 86 88 176h-10q-31 0 -50.5 24.5t-19.5 63.5q0 43 24.5 70.5t61.5 27.5q41 0 67.5 -35.5t26.5 -99.5q0 -111 -151 -262zM580 766q59 86 88 176h-11q-31 0 -50 24.5t-19 63.5q0 43 24.5 70.5t61.5 27.5q41 0 67.5 -35.5t26.5 -99.5q0 -111 -152 -262z" />
<glyph unicode="&#x201e;" horiz-adv-x="1013" d="M248 -176q59 86 88 176h-10q-31 0 -50.5 24.5t-19.5 63.5q0 43 24.5 70.5t61.5 27.5q41 0 67.5 -35.5t26.5 -99.5q0 -111 -151 -262zM580 -176q59 86 88 176h-11q-31 0 -50 24.5t-19 63.5q0 43 24.5 70.5t61.5 27.5q41 0 67.5 -35.5t26.5 -99.5q0 -111 -152 -262z" />
<glyph unicode="&#x2022;" horiz-adv-x="1208" d="M307 762q0 123 87 209t210 86q121 0 208 -86t87 -209q0 -121 -87 -209t-210 -88t-209 87t-86 210z" />
<glyph unicode="&#x2026;" horiz-adv-x="2048" d="M258 61q0 41 24.5 67t59.5 26t58.5 -26t23.5 -67t-23.5 -65.5t-58.5 -24.5t-59.5 24.5t-24.5 65.5zM940 61q0 41 24.5 67t59.5 26t58.5 -26t23.5 -67t-23.5 -65.5t-58.5 -24.5t-59.5 24.5t-24.5 65.5zM1624 61q0 41 24.5 67t59.5 26t58.5 -26t23.5 -67t-23.5 -65.5 t-58.5 -24.5t-59.5 24.5t-24.5 65.5z" />
<glyph unicode="&#x2039;" horiz-adv-x="417" d="M47 326v198l324 244v-145l-254 -197l254 -201v-141z" />
<glyph unicode="&#x203a;" horiz-adv-x="417" d="M47 84v141l254 201l-254 197v145l324 -244v-198z" />
<glyph unicode="&#x2122;" horiz-adv-x="1705" d="M264 1397v57h430v-57h-172v-473h-82v473h-176zM821 924v530h117l166 -422l156 422h116v-530h-71v467l-177 -467h-49l-186 467v-467h-72z" />
<glyph unicode="&#xe000;" horiz-adv-x="855" d="M0 855h855v-855h-855v855z" />
<glyph unicode="&#xfb01;" horiz-adv-x="1394" d="M145 0v854h789v-125h-655v-213h423v-123h-423v-393h-134zM1110 -2v858h135v-858h-135z" />
<glyph unicode="&#xfb02;" horiz-adv-x="1882" d="M145 0v854h789v-125h-655v-213h423v-123h-423v-393h-134zM1108 0v854h133v-731h635v-123h-768z" />
<glyph unicode="&#xfb03;" horiz-adv-x="2357" d="M2072 -2v858h136v-858h-136zM1108 0v854h789v-125h-655v-213h423v-123h-423v-393h-134zM145 0v854h789v-125h-655v-213h423v-123h-423v-393h-134z" />
<glyph unicode="&#xfb04;" horiz-adv-x="2844" d="M2070 0v854h134v-731h634v-123h-768zM1108 0v854h789v-125h-655v-213h423v-123h-423v-393h-134zM145 0v854h789v-125h-655v-213h423v-123h-423v-393h-134z" />
</font>
</defs>
</svg>
